<svg width="137" height="40" viewBox="0 0 137 40" fill="none" xmlns="http://www.w3.org/2000/svg">
<path d="M39.6715 13.3486C37.4219 13.3486 36.3011 14.1369 36.3011 15.7133C36.3011 16.529 36.5676 17.1094 37.0966 17.4545C37.6257 17.7996 38.8015 18.2231 40.6161 18.729C42.4306 19.2349 43.7083 19.8349 44.4529 20.5368C45.1976 21.2349 45.5699 22.3408 45.5699 23.8427C45.5699 25.7565 45.0251 27.1839 43.9356 28.1329C42.8461 29.0819 41.3646 29.5525 39.4873 29.5525C37.9824 29.5525 36.3206 29.3761 34.4943 29.0231L33.538 28.8388L33.832 26.4741C36.2227 26.7917 38.0451 26.9525 39.3031 26.9525C41.4979 26.9525 42.5952 25.98 42.5952 24.031C42.5952 23.2702 42.3483 22.7055 41.8506 22.3447C41.3568 21.98 40.2398 21.5839 38.5036 21.1486C36.7674 20.7133 35.478 20.1172 34.6276 19.3565C33.7771 18.5957 33.3538 17.3917 33.3538 15.7447C33.3538 14.0976 33.8908 12.8545 34.9607 12.0114C36.0306 11.1721 37.5121 10.7486 39.4089 10.7486C40.7728 10.7486 42.3836 10.9094 44.2413 11.227L45.1701 11.3878L44.931 13.78C42.4502 13.4898 40.6984 13.3486 39.6715 13.3486Z" fill="white"/>
<path d="M46.9729 15.9761H49.8143L52.6283 26.7878H53.3455L56.1594 15.9761H59.0283L53.9843 34.9721H51.1429L52.7341 29.2623H50.4492L46.9729 15.9761Z" fill="white"/>
<path d="M64.1506 29.2623H61.2583V15.98H64.1271V16.8035C65.4204 16.0584 66.6393 15.6859 67.7915 15.6859C69.5591 15.6859 70.7701 16.1878 71.4167 17.1878C72.0634 18.1878 72.3848 19.8388 72.3848 22.1408V29.2623H69.5159V22.2231C69.5159 20.7878 69.3592 19.7721 69.0496 19.1682C68.74 18.5682 68.109 18.2663 67.1527 18.2663C66.2513 18.2663 65.3812 18.4427 64.5504 18.7957L64.1506 18.9565V29.2623Z" fill="white"/>
<path d="M80.7169 15.6859C81.6536 15.6859 82.7627 15.8114 84.0364 16.0584L84.6988 16.1918L84.593 18.478C83.1938 18.3368 82.1592 18.2663 81.4851 18.2663C80.1408 18.2663 79.2355 18.5682 78.7769 19.1682C78.3184 19.7721 78.0872 20.9055 78.0872 22.5682C78.0872 24.2349 78.3066 25.3839 78.7495 26.0231C79.1924 26.6623 80.1134 26.98 81.5086 26.98L84.6165 26.7682L84.6949 29.078C82.9077 29.3957 81.5634 29.5565 80.6581 29.5565C78.6398 29.5565 77.221 29.0114 76.398 27.9212C75.575 26.831 75.1635 25.0467 75.1635 22.5682C75.1635 20.0898 75.5985 18.3212 76.4646 17.2702C77.3347 16.2114 78.7495 15.6859 80.7169 15.6859Z" fill="white"/>
<path d="M90.7774 29.2623H87.8302V11.0663H90.7774V19.2741L93.4855 19.0623L97.2009 11.0663H100.571L96.0839 20.2035L100.756 29.2623H97.3302L93.4816 21.6663L90.7735 21.8506V29.2623H90.7774Z" fill="white"/>
<path d="M102.829 29.2623V15.98H105.698V17.5721C107.203 16.5996 108.708 15.9682 110.213 15.6859V18.58C108.692 18.8819 107.391 19.2702 106.309 19.7486L105.725 19.9878V29.2584H102.829V29.2623Z" fill="white"/>
<path d="M121.758 26.8702L122.503 26.7918L122.554 28.9447C120.536 29.3525 118.748 29.5565 117.193 29.5565C115.229 29.5565 113.814 29.0153 112.96 27.9368C112.102 26.8584 111.67 25.129 111.67 22.7565C111.67 18.0467 113.591 15.6898 117.432 15.6898C121.147 15.6898 123.009 17.7172 123.009 21.7721L122.824 23.8427H114.594C114.61 24.9408 114.849 25.7486 115.311 26.2584C115.77 26.7721 116.628 27.027 117.886 27.027C119.14 27.031 120.434 26.9761 121.758 26.8702ZM120.167 21.6114C120.167 20.3016 119.959 19.3839 119.544 18.8623C119.129 18.3408 118.423 18.078 117.432 18.078C116.44 18.078 115.719 18.3525 115.268 18.9016C114.818 19.4506 114.582 20.3525 114.567 21.6114H120.167Z" fill="white"/>
<path d="M126.524 17.4114C127.437 16.2584 128.954 15.6859 131.078 15.6859C133.202 15.6859 134.719 16.2623 135.632 17.4114C136.545 18.5643 137 20.2898 137 22.5917C137 24.8937 136.557 26.631 135.671 27.7996C134.786 28.9682 133.257 29.5525 131.078 29.5525C128.903 29.5525 127.371 28.9682 126.485 27.7996C125.599 26.631 125.156 24.8937 125.156 22.5917C125.156 20.2898 125.615 18.5643 126.524 17.4114ZM128.687 26.0466C129.095 26.7565 129.891 27.1094 131.078 27.1094C132.266 27.1094 133.061 26.7565 133.469 26.0466C133.876 25.3368 134.08 24.18 134.08 22.5682C134.08 20.9565 133.865 19.8153 133.43 19.1408C132.995 18.4663 132.211 18.1329 131.078 18.1329C129.946 18.1329 129.162 18.4702 128.727 19.1408C128.292 19.8153 128.076 20.9565 128.076 22.5682C128.08 24.1761 128.284 25.3368 128.687 26.0466Z" fill="white"/>
<path d="M27.1498 8.13685L22.1098 15.7172L21.6708 16.38L20.2678 18.4898L19.8288 19.1525L15.506 25.6506C14.8123 26.6898 13.2407 27.0663 11.9905 26.4898L9.37249 25.278L10.7834 23.1565C12.0022 23.6388 13.4759 23.2545 14.1382 22.2545L17.0501 17.8702L17.4891 17.2074L18.9 15.0937L22.9759 8.9643C23.6696 7.92509 23.215 6.61136 21.9687 6.03489L16.8503 3.66627C15.604 3.0898 14.0324 3.46627 13.3387 4.50548L4.50097 17.7957C3.80728 18.8349 4.2619 20.1486 5.5082 20.729L6.41352 21.1486L5.01046 23.2584L1.33037 21.5525C0.0840765 20.9761 -0.366627 19.6623 0.323145 18.6231L11.967 1.1094C12.6607 0.0701891 14.2323 -0.306281 15.4825 0.270189L26.1387 5.20352C27.3889 5.77999 27.8435 7.09372 27.1498 8.13685Z" fill="white"/>
<path d="M27.1498 21.38L15.506 38.8898C14.8123 39.9329 13.2407 40.3055 11.9905 39.729L1.33037 34.7996C0.0840765 34.2231 -0.366627 32.9094 0.323145 31.8663L7.20519 21.5172L7.64414 20.8545L11.967 14.3565C12.6607 13.3133 14.2323 12.9408 15.4825 13.5172L18.1005 14.729L16.6856 16.8506C15.4707 16.3643 14.001 16.7565 13.3387 17.7525L10.4267 22.1368L9.9878 22.7996L8.5769 24.9094L8.13795 25.5721L4.50097 31.0427C3.80728 32.0859 4.2619 33.3996 5.5082 33.9761L10.6227 36.3447C11.869 36.9212 13.4406 36.5447 14.1343 35.5055L22.972 22.2153C23.6657 21.1721 23.2111 19.8584 21.9648 19.2819L21.0594 18.8623L22.4625 16.7525L26.1426 18.4545C27.3889 19.027 27.8435 20.3408 27.1498 21.38Z" fill="white"/>
</svg>
