<svg width="18" height="20" viewBox="0 0 18 20" fill="none" xmlns="http://www.w3.org/2000/svg">
<path fill-rule="evenodd" clip-rule="evenodd" d="M10.0078 0.777407C9.65679 0.407531 9.08699 0.407531 8.7351 0.777407C8.38411 1.14823 8.38411 1.74857 8.7351 2.11939L14.532 8.22709C14.8155 8.52583 14.6148 9.03607 14.2134 9.03607H0.900009C0.403222 9.03607 0 9.46854 0 9.99301V9.99585C0 10.5203 0.403222 10.9329 0.900009 10.9329H14.2134C14.6148 10.9329 14.8155 11.4441 14.532 11.7428L8.70742 17.8808C8.35552 18.2507 8.35552 18.852 8.70742 19.2219C9.0584 19.5927 9.62866 19.5927 9.97965 19.2219L17.4728 11.3265C18.1757 10.5858 18.1757 9.38508 17.4728 8.64438L10.0078 0.777407Z" fill="#F57C00"/>
</svg>
