<svg width="16" height="17" viewBox="0 0 16 17" fill="none" xmlns="http://www.w3.org/2000/svg">
<rect x="0.333333" y="0.833333" width="15.3333" height="15.3333" rx="7.66667" stroke="#262626" stroke-width="0.666667"/>
<path d="M8 3.00244V4.49982M8 12.4998V13.9972M5 10.9972C5 11.3957 5.15831 11.7779 5.44011 12.0597C5.7219 12.3415 6.1041 12.4998 6.50262 12.4998H9C9.53043 12.4998 10.0391 12.2891 10.4142 11.914C10.7893 11.539 11 11.0303 11 10.4998C11 9.96939 10.7893 9.46068 10.4142 9.08561C10.0391 8.71054 9.53043 8.49982 9 8.49982H7C6.46957 8.49982 5.96086 8.28911 5.58579 7.91404C5.21071 7.53896 5 7.03026 5 6.49982C5 5.96939 5.21071 5.46068 5.58579 5.08561C5.96086 4.71054 6.46957 4.49982 7 4.49982H9.49738C9.8959 4.49982 10.2781 4.65813 10.5599 4.93993C10.8417 5.22173 11 5.60392 11 6.00244" stroke="#262626" stroke-width="1.27333" stroke-miterlimit="10" stroke-linecap="square"/>
</svg>
