<svg width="14" height="15" viewBox="0 0 14 15" fill="none" xmlns="http://www.w3.org/2000/svg">
<path d="M3.1 14.5H11.7667M5.7 14.5C10.4667 12.3125 6.39333 8.9 8.3 5.75M8.3 5.75C8.2602 4.51288 8.59257 3.29261 9.25333 2.25C10.0333 1.375 11.16 0.5875 13.5 0.5C13.4133 2.5125 12.8933 3.65 12.0267 4.525C11.16 5.225 9.94667 5.6625 8.3 5.75ZM5.26667 5.225C6.22 5.925 6.82667 7.15 7.26 8.4625C5.52667 8.8125 4.22667 8.8125 3.1 8.2C2.06 7.675 1.10667 6.5375 0.5 4.525C2.92667 4.0875 4.31333 4.525 5.26667 5.225Z" stroke="#262626" stroke-opacity="0.7" stroke-linecap="round" stroke-linejoin="round"/>
</svg>
