<svg width="16" height="12" viewBox="0 0 16 12" fill="none" xmlns="http://www.w3.org/2000/svg">
<path fill-rule="evenodd" clip-rule="evenodd" d="M16 5.99989C16 5.6726 15.8229 5.45769 15.4688 5.02778C14.1736 3.45505 11.3164 0.526855 7.99998 0.526855C4.68358 0.526855 1.82647 3.45505 0.531103 5.02778C0.177034 5.45769 0 5.6726 0 5.99989C0 6.32717 0.177034 6.54208 0.531103 6.97199C1.82647 8.54475 4.68358 11.4729 7.99998 11.4729C11.3164 11.4729 14.1736 8.54475 15.4688 6.97199C15.8229 6.54208 16 6.32717 16 5.99989ZM7.99998 8.7364C9.51136 8.7364 10.7365 7.51126 10.7365 5.99989C10.7365 4.48851 9.51136 3.26337 7.99998 3.26337C6.4887 3.26337 5.26349 4.48851 5.26349 5.99989C5.26349 7.51126 6.4887 8.7364 7.99998 8.7364Z" fill="white"/>
</svg>
