<svg width="18" height="18" viewBox="0 0 18 18" fill="none" xmlns="http://www.w3.org/2000/svg">
<path d="M17.9998 8.94432C17.9788 7.21865 17.468 5.53496 16.5277 4.09155C15.5874 2.64814 14.2569 1.50512 12.6926 0.797117C11.1283 0.0891104 9.39547 -0.154397 7.69825 0.095257C6.00106 0.344922 4.41008 1.07735 3.11273 2.20631C1.81537 3.33525 0.865647 4.81371 0.375414 6.46754C-0.114808 8.12139 -0.125135 9.8817 0.345668 11.5413C0.816472 13.2008 1.74879 14.6904 3.03282 15.8347C4.31684 16.979 5.89912 17.7303 7.59329 18V11.5818H5.34323V8.94432H7.59329V6.94075C7.5412 6.4749 7.59137 6.00321 7.74033 5.55898C7.88928 5.11475 8.1333 4.70883 8.45517 4.36987C8.77704 4.03089 9.16889 3.76713 9.60316 3.59721C10.0374 3.42728 10.5035 3.35532 10.9684 3.38643C11.6432 3.39572 12.3164 3.45627 12.9822 3.56754V5.83146H11.8572C11.6632 5.80684 11.4661 5.8264 11.2807 5.8887C11.0952 5.95099 10.926 6.05442 10.7856 6.19134C10.6452 6.32826 10.5372 6.49518 10.4695 6.67972C10.4018 6.86434 10.3763 7.06187 10.3946 7.2577V8.96696H12.8922L12.4872 11.6044H10.4059V17.9434C12.5321 17.6051 14.4673 16.5111 15.8606 14.8601C17.2538 13.209 18.0128 11.1102 17.9998 8.94432Z" fill="#1877F2"/>
</svg>
