<svg width="15" height="15" viewBox="0 0 15 15" fill="none" xmlns="http://www.w3.org/2000/svg">
<path d="M10.3 4.7H6.1C5.7287 4.7 5.3726 4.8475 5.11005 5.11005C4.8475 5.3726 4.7 5.7287 4.7 6.1C4.7 6.4713 4.8475 6.8274 5.11005 7.08995C5.3726 7.3525 5.7287 7.5 6.1 7.5H8.9C9.2713 7.5 9.6274 7.6475 9.88995 7.91005C10.1525 8.1726 10.3 8.5287 10.3 8.9C10.3 9.2713 10.1525 9.6274 9.88995 9.88995C9.6274 10.1525 9.2713 10.3 8.9 10.3H4.7M7.5 11.7V3.3M14.5 7.5C14.5 11.366 11.366 14.5 7.5 14.5C3.63401 14.5 0.5 11.366 0.5 7.5C0.5 3.63401 3.63401 0.5 7.5 0.5C11.366 0.5 14.5 3.63401 14.5 7.5Z" stroke="#262626" stroke-opacity="0.7" stroke-linecap="round" stroke-linejoin="round"/>
</svg>
