<svg width="18" height="14" viewBox="0 0 18 14" fill="none" xmlns="http://www.w3.org/2000/svg">
<path d="M13.9515 1.25417L9.0529 5.102L4.04226 1.25417V1.25521L4.04832 1.26041V6.6484L8.99644 10.5794L13.9515 6.80017V1.25417Z" fill="#EA4335"/>
<path d="M15.2374 0.318195L13.9515 1.25417V6.80017L17.999 3.67205V1.78763C17.999 1.78763 17.5077 -0.903745 15.2374 0.318195Z" fill="#FBBC05"/>
<path d="M13.9515 6.80017L13.951 13.9935H17.0536C17.0536 13.9935 17.9365 13.902 18 12.8891V3.67205L13.9515 6.80017Z" fill="#34A853"/>
<path d="M4.04855 13.9998L4.04832 6.6484L4.04226 6.64321L4.04855 13.9998Z" fill="#C5221F"/>
<path d="M4.04226 1.25521L2.76262 0.324313C0.492385 -0.897626 0 1.79272 0 1.79272V3.67707L4.04226 6.64321V1.25521Z" fill="#C5221F"/>
<path d="M4.04226 1.25521V6.64321L4.04832 6.6484V1.26041L4.04226 1.25521Z" fill="#C5221F"/>
<path d="M0 3.67847V12.8955C0.0625596 13.9095 0.946437 14 0.946437 14L4.04855 13.9998L4.04226 6.64321L0 3.67847Z" fill="#4285F4"/>
</svg>
