<svg width="16" height="15" viewBox="0 0 16 15" fill="none" xmlns="http://www.w3.org/2000/svg">
<path d="M0.522046 14.4971H15.3961M6.47184 4.41193V14.4501L6.47205 0.942061L14.405 4.41193M6.47184 4.41193L1.51403 5.40323V14.4501M6.47184 4.41193L0.496826 5.60718M14.405 14.4501V4.41193M14.405 4.41193L14.4047 0.942061H12.4214V3.44116M12.4213 14.4501L12.4279 10.1981C12.4279 9.93472 12.3232 9.68203 12.1369 9.49576C11.9506 9.30948 11.698 9.20486 11.4346 9.20486H9.44803C9.18461 9.20486 8.93192 9.30948 8.74565 9.49576C8.55938 9.68203 8.45475 9.93472 8.45475 10.1981V14.4501M5.45548 0.49707L15.3936 4.84434M8.60864 4.84831H9.93302" stroke="#262626" stroke-opacity="0.7" stroke-width="0.993288" stroke-linecap="round" stroke-linejoin="round"/>
</svg>
