<svg width="18" height="16" viewBox="0 0 18 16" fill="none" xmlns="http://www.w3.org/2000/svg">
<path fill-rule="evenodd" clip-rule="evenodd" d="M4.08625 16V5.20429H0.228083V15.9999H4.08625V16ZM2.15757 3.73087C3.50257 3.73087 4.3404 2.90119 4.3404 1.86524C4.31497 0.806257 3.50257 0 2.1828 0C0.862804 3.27574e-05 0 0.806289 0 1.86527C0 2.90122 0.837372 3.7309 2.13218 3.7309L2.15757 3.73087ZM6.2216 16C6.2216 16 6.27222 6.21721 6.2216 5.20432H10.0804V6.76993H10.0548C10.5621 6.03322 11.4762 4.95081 13.5575 4.95081C16.0968 4.95081 18 6.49378 18 9.80981V16H14.1419V10.2246C14.1419 8.77343 13.5836 7.78318 12.187 7.78318C11.1213 7.78318 10.4862 8.45077 10.2073 9.09609C10.1052 9.32579 10.0804 9.64842 10.0804 9.97108V16H6.2216Z" fill="#0A66C2"/>
</svg>
