<svg width="15" height="17" viewBox="0 0 15 17" fill="none" xmlns="http://www.w3.org/2000/svg">
<path d="M13.6667 6.91683C13.6667 10.8696 9.28163 14.9863 7.80913 16.2577C7.67195 16.3609 7.50497 16.4166 7.33333 16.4166C7.1617 16.4166 6.99472 16.3609 6.85754 16.2577C5.38504 14.9863 1 10.8696 1 6.91683C1 5.23713 1.66726 3.62622 2.85499 2.43849C4.04272 1.25076 5.65363 0.583496 7.33333 0.583496C9.01304 0.583496 10.6239 1.25076 11.8117 2.43849C12.9994 3.62622 13.6667 5.23713 13.6667 6.91683Z" stroke="#262626" stroke-linecap="round" stroke-linejoin="round"/>
<path d="M7.33333 9.29183C8.64501 9.29183 9.70833 8.22851 9.70833 6.91683C9.70833 5.60515 8.64501 4.54183 7.33333 4.54183C6.02166 4.54183 4.95833 5.60515 4.95833 6.91683C4.95833 8.22851 6.02166 9.29183 7.33333 9.29183Z" stroke="#262626" stroke-linecap="round" stroke-linejoin="round"/>
</svg>
