<svg width="15" height="15" viewBox="0 0 15 15" fill="none" xmlns="http://www.w3.org/2000/svg">
<path d="M6.69699 0.99355C7.07161 0.23449 8.154 0.234491 8.52862 0.99355L10.0202 4.01586C10.169 4.31728 10.4565 4.5262 10.7892 4.57454L14.1245 5.05919C14.9622 5.18091 15.2966 6.21033 14.6905 6.80117L12.277 9.15371C12.0363 9.38833 11.9265 9.72638 11.9833 10.0577L12.5531 13.3795C12.6962 14.2138 11.8205 14.85 11.0712 14.4561L8.08805 12.8878C7.79052 12.7313 7.43508 12.7313 7.13756 12.8878L4.15437 14.4561C3.40513 14.85 2.52946 14.2138 2.67255 13.3795L3.24229 10.0577C3.29911 9.72637 3.18927 9.38833 2.94857 9.15371L0.535115 6.80117C-0.0710297 6.21032 0.263449 5.18091 1.10112 5.05919L4.43643 4.57454C4.76907 4.5262 5.05663 4.31728 5.20539 4.01586L6.69699 0.99355Z" fill="#F57C00"/>
</svg>
