<svg width="15" height="15" viewBox="0 0 15 15" fill="none" xmlns="http://www.w3.org/2000/svg">
<path d="M8.19863 4.00005L5.18965 0.991063C4.87362 0.676559 4.4459 0.5 4.00005 0.5C3.55419 0.5 3.12648 0.676559 2.81045 0.991063L0.991063 2.81045C0.676559 3.12648 0.5 3.55419 0.5 4.00005C0.5 4.4459 0.676559 4.87362 0.991063 5.18965L4.00005 8.19863M4.69981 3.30028L6.09934 1.90076M11.6974 10.2979L13.097 8.89839M10.9977 6.7991L14.0067 9.80809C14.6644 10.4659 14.6644 11.5295 14.0067 12.1873L12.1873 14.0067C11.5295 14.6644 10.4659 14.6644 9.80809 14.0067L6.7991 10.9977M9.59816 2.60052L12.3972 5.39957M13.9185 3.86849C14.2885 3.49861 14.4964 2.99691 14.4964 2.47376C14.4965 1.95061 14.2887 1.44885 13.9188 1.07888C13.549 0.708912 13.0473 0.501027 12.5241 0.500962C12.001 0.500896 11.4992 0.708655 11.1292 1.07853L1.79019 10.4197C1.62772 10.5817 1.50757 10.7811 1.44031 11.0005L0.515923 14.0459C0.497838 14.1064 0.496472 14.1707 0.51197 14.2319C0.527469 14.2931 0.559253 14.349 0.603951 14.3936C0.648649 14.4383 0.704594 14.47 0.76585 14.4854C0.827106 14.5008 0.891388 14.4993 0.951876 14.4811L3.99795 13.5574C4.21709 13.4908 4.41653 13.3713 4.57875 13.2096L13.9185 3.86849Z" stroke="#262626" stroke-opacity="0.7" stroke-linecap="round" stroke-linejoin="round"/>
</svg>
