<svg width="236" height="342" viewBox="0 0 236 342" fill="none" xmlns="http://www.w3.org/2000/svg">
<path d="M232.59 69.7298L133.11 219.21C127.2 228.08 113.76 231.31 103.07 226.38L80.71 216.03L92.75 197.93C103.18 202.05 115.75 198.78 121.4 190.22L162.08 129.1L165.79 123.5L196.91 76.7598C202.82 67.8898 198.95 56.6898 188.31 51.7598L144.61 31.5498C133.97 26.6198 120.53 29.8498 114.62 38.7198L39.1 152.18C33.19 161.05 37.06 172.25 47.7 177.23L55.44 180.81L43.45 198.82L12.01 184.26C1.37 179.33 -2.5 168.13 3.41 159.26L102.9 9.72983C108.81 0.859826 122.25 -2.37017 132.94 2.55983L223.99 44.6798C234.63 49.6098 238.5 60.8098 232.59 69.7298Z" fill="#F57C00"/>
<path d="M232.59 182.78L133.1 332.26C127.19 341.18 113.75 344.36 103.06 339.43L12.01 297.36C1.37 292.43 -2.5 281.23 3.41 272.31L46.51 207.56L50.22 201.96L102.89 122.83C108.8 113.91 122.24 110.73 132.93 115.66L155.29 126.01L143.2 144.11C132.83 139.94 120.25 143.3 114.61 151.82L85.97 194.88L73.93 212.89L39.1 265.23C33.19 274.15 37.06 285.35 47.7 290.28L91.4 310.49C102.04 315.42 115.48 312.19 121.39 303.32L196.9 189.87C202.81 180.95 198.94 169.75 188.3 164.82L180.56 161.24L192.55 143.23L223.99 157.75C234.63 162.71 238.5 173.91 232.59 182.78Z" fill="#1A237E"/>
</svg>
